<?xml version="1.0" encoding="UTF-8" standalone="no"?>
<svg
   xmlns:dc="http://purl.org/dc/elements/1.1/"
   xmlns:cc="http://creativecommons.org/ns#"
   xmlns:rdf="http://www.w3.org/1999/02/22-rdf-syntax-ns#"
   xmlns:svg="http://www.w3.org/2000/svg"
   xmlns="http://www.w3.org/2000/svg"
   xmlns:sodipodi="http://sodipodi.sourceforge.net/DTD/sodipodi-0.dtd"
   xmlns:inkscape="http://www.inkscape.org/namespaces/inkscape"
   width="485.71301"
   height="397.63101"
   viewBox="0 0 485.71301 397.63101"
   version="1.1"
   id="svg21"
   sodipodi:docname="jbl-logo.svg"
   inkscape:version="0.92.2 (5c3e80d, 2017-08-06)">
  <metadata
     id="metadata25">
    <rdf:RDF>
      <cc:Work
         rdf:about="">
        <dc:format>image/svg+xml</dc:format>
        <dc:type
           rdf:resource="http://purl.org/dc/dcmitype/StillImage" />
        <dc:title>logo</dc:title>
      </cc:Work>
    </rdf:RDF>
  </metadata>
  <sodipodi:namedview
     pagecolor="#ffffff"
     bordercolor="#666666"
     borderopacity="1"
     objecttolerance="10"
     gridtolerance="10"
     guidetolerance="10"
     inkscape:pageopacity="0"
     inkscape:pageshadow="2"
     inkscape:window-width="1600"
     inkscape:window-height="837"
     id="namedview23"
     showgrid="false"
     fit-margin-top="0"
     fit-margin-left="0"
     fit-margin-right="0"
     fit-margin-bottom="0"
     inkscape:zoom="0.9516129"
     inkscape:cx="62.508045"
     inkscape:cy="95.634993"
     inkscape:window-x="-8"
     inkscape:window-y="-8"
     inkscape:window-maximized="1"
     inkscape:current-layer="logo" />
  <!-- Generator: Sketch 51 (57462) - http://www.bohemiancoding.com/sketch -->
  <title
     id="title2">logo</title>
  <desc
     id="desc4">Created with Sketch.</desc>
  <defs
     id="defs6" />
  <g
     id="Symbols"
     style="fill:none;fill-rule:evenodd;stroke:none;stroke-width:1">
    <g
       id="Static-/-logo">
      <g
         id="logo">
        <path
           d="M 0,0 H 485.713 V 397.631 H 0 Z"
           id="Back"
           inkscape:connector-curvature="0"
           style="fill:#ff3300"
           sodipodi:nodetypes="ccccc" />
        <g
           id="JBL"
           transform="translate(99,115)"
           style="fill:#ffffff">
          <path
             d="m 218.714,166.667 h 83.169 v -53.025 h -27.456 l 0.02,28.989 c 0,7.773 -6.332,14.102 -14.142,14.102 -7.803,0 -14.142,-6.329 -14.142,-14.102 V 0.144 h -27.449 z"
             id="Path"
             inkscape:connector-curvature="0" />
          <path
             d="M 116.427,166.667 V 0.144 h 54.879 c 10.589,0 27.436,8.694 27.436,27.133 v 28.366 c 0,8.294 -7.274,22.992 -18.081,22.992 10.807,0 18.081,9.311 18.081,16.365 v 49.915 c 0,8.49 -6.854,21.752 -27.436,21.752 z m 42.405,-94.829 c 9.979,0 12.474,-1.68 12.474,-27.783 0,-26.096 -2.495,-28.176 -12.474,-28.176 h -14.989 v 55.919 z m 12.474,47.808 c 0,-26.11 0,-33.754 -10.834,-33.754 h -16.629 v 67.093 l 16.629,0.034 c 10.834,0 10.834,-7.284 10.834,-33.373 z"
             id="Combined-Shape"
             inkscape:connector-curvature="0" />
          <path
             d="m 12.446,137.664 c 0,12.008 10.813,31.476 41.577,31.476 30.772,0 41.592,-14.894 41.592,-31.476 V 0.144 H 68.158 l 0.014,142.297 c 0,7.773 -6.319,14.292 -14.128,14.292 -7.817,0 -14.149,-6.329 -14.149,-14.102 l -0.02,-28.989 H 12.446 Z"
             id="path11"
             inkscape:connector-curvature="0" />
          <path
             d="m 26.167,95.501 c 8.759,0 15.877,-7.095 15.877,-15.816 0,-8.762 -7.118,-15.829 -15.877,-15.829 -8.786,0 -15.884,7.067 -15.884,15.829 0,8.721 7.098,15.816 15.884,15.816 z"
             id="path13"
             inkscape:connector-curvature="0" />
          <polygon
             id="polygon15"
             points="0.799,0.144 26.167,57.716 51.529,0.144 " />
        </g>
      </g>
    </g>
  </g>
</svg>
